<?xml version="1.0" encoding="UTF-8" standalone="no"?><svg xmlns="http://www.w3.org/2000/svg" xmlns:xlink="http://www.w3.org/1999/xlink" contentScriptType="application/ecmascript" contentStyleType="text/css" height="336px" preserveAspectRatio="none" style="width:526px;height:336px;" version="1.1" viewBox="0 0 526 336" width="526px" zoomAndPan="magnify"><defs><filter height="300%" id="fpiilnl" width="300%" x="-1" y="-1"><feGaussianBlur result="blurOut" stdDeviation="2.0"/><feColorMatrix in="blurOut" result="blurOut2" type="matrix" values="0 0 0 0 0 0 0 0 0 0 0 0 0 0 0 0 0 0 .4 0"/><feOffset dx="4.0" dy="4.0" in="blurOut2" result="blurOut3"/><feBlend in="SourceGraphic" in2="blurOut3" mode="normal"/></filter></defs><g><!--class Runnable--><rect fill="#FEFECE" filter="url(#fpiilnl)" height="60.9551" style="stroke: #A80036; stroke-width: 1.5;" width="86" x="431" y="175.5"/><ellipse cx="446" cy="191.5" fill="#B4A7E5" rx="11" ry="11" style="stroke: #A80036; stroke-width: 1.0;"/><path d="M441.9277,187.2651 L441.9277,185.1069 L449.3071,185.1069 L449.3071,187.2651 L446.8418,187.2651 L446.8418,195.3418 L449.3071,195.3418 L449.3071,197.5 L441.9277,197.5 L441.9277,195.3418 L444.3931,195.3418 L444.3931,187.2651 Z "/><text fill="#000000" font-family="sans-serif" font-size="12" font-style="italic" lengthAdjust="spacingAndGlyphs" textLength="54" x="460" y="196.0352">Runnable</text><line style="stroke: #A80036; stroke-width: 1.5;" x1="432" x2="516" y1="207.5" y2="207.5"/><line style="stroke: #A80036; stroke-width: 1.5;" x1="432" x2="516" y1="215.5" y2="215.5"/><text fill="#000000" font-family="sans-serif" font-size="11" lengthAdjust="spacingAndGlyphs" textLength="27" x="437" y="230.1348">run()</text><!--class ThreadSample--><rect fill="#FEFECE" filter="url(#fpiilnl)" height="73.9102" style="stroke: #A80036; stroke-width: 1.5;" width="168" x="6" y="169"/><ellipse cx="44.4" cy="185" fill="#ADD1B2" rx="11" ry="11" style="stroke: #A80036; stroke-width: 1.0;"/><path d="M47.3731,190.6431 Q46.7921,190.9419 46.1529,191.0913 Q45.5138,191.2407 44.8082,191.2407 Q42.3014,191.2407 40.9815,189.5889 Q39.6617,187.937 39.6617,184.8159 Q39.6617,181.6865 40.9815,180.0347 Q42.3014,178.3828 44.8082,178.3828 Q45.5138,178.3828 46.1612,178.5322 Q46.8087,178.6816 47.3731,178.9805 L47.3731,181.7031 Q46.7423,181.1221 46.1488,180.8523 Q45.5553,180.5825 44.9244,180.5825 Q43.5797,180.5825 42.8949,181.6492 Q42.2101,182.7158 42.2101,184.8159 Q42.2101,186.9077 42.8949,187.9744 Q43.5797,189.041 44.9244,189.041 Q45.5553,189.041 46.1488,188.7712 Q46.7423,188.5015 47.3731,187.9204 Z "/><text fill="#000000" font-family="sans-serif" font-size="12" lengthAdjust="spacingAndGlyphs" textLength="84" x="63.6" y="189.5352">ThreadSample</text><line style="stroke: #A80036; stroke-width: 1.5;" x1="7" x2="173" y1="201" y2="201"/><line style="stroke: #A80036; stroke-width: 1.5;" x1="7" x2="173" y1="209" y2="209"/><ellipse cx="17" cy="220.9775" fill="#84BE84" rx="3" ry="3" style="stroke: #038048; stroke-width: 1.0;"/><text fill="#000000" font-family="sans-serif" font-size="11" lengthAdjust="spacingAndGlyphs" textLength="142" x="26" y="223.6348">ThreadSample(String msg)</text><ellipse cx="17" cy="233.9326" fill="#84BE84" rx="3" ry="3" style="stroke: #038048; stroke-width: 1.0;"/><text fill="#000000" font-family="sans-serif" font-size="11" lengthAdjust="spacingAndGlyphs" textLength="27" x="26" y="236.5898">run()</text><!--class Thread--><rect fill="#FEFECE" filter="url(#fpiilnl)" height="242.3262" style="stroke: #A80036; stroke-width: 1.5;" width="137" x="234" y="85"/><ellipse cx="277.35" cy="101" fill="#ADD1B2" rx="11" ry="11" style="stroke: #A80036; stroke-width: 1.0;"/><path d="M280.3231,106.6431 Q279.7421,106.9419 279.1029,107.0913 Q278.4638,107.2407 277.7582,107.2407 Q275.2514,107.2407 273.9315,105.5889 Q272.6117,103.937 272.6117,100.8159 Q272.6117,97.6865 273.9315,96.0347 Q275.2514,94.3828 277.7582,94.3828 Q278.4638,94.3828 279.1112,94.5322 Q279.7587,94.6816 280.3231,94.9805 L280.3231,97.7031 Q279.6923,97.1221 279.0988,96.8523 Q278.5053,96.5825 277.8744,96.5825 Q276.5297,96.5825 275.8449,97.6492 Q275.1601,98.7158 275.1601,100.8159 Q275.1601,102.9077 275.8449,103.9744 Q276.5297,105.041 277.8744,105.041 Q278.5053,105.041 279.0988,104.7712 Q279.6923,104.5015 280.3231,103.9204 Z "/><text fill="#000000" font-family="sans-serif" font-size="12" lengthAdjust="spacingAndGlyphs" textLength="42" x="297.65" y="105.5352">Thread</text><line style="stroke: #A80036; stroke-width: 1.5;" x1="235" x2="370" y1="117" y2="117"/><rect fill="none" height="6" style="stroke: #C82930; stroke-width: 1.0;" width="6" x="242" y="125.9775"/><text fill="#000000" font-family="sans-serif" font-size="11" lengthAdjust="spacingAndGlyphs" textLength="92" x="254" y="131.6348">deamon: boolean</text><rect fill="none" height="6" style="stroke: #C82930; stroke-width: 1.0;" width="6" x="242" y="138.9326"/><text fill="#000000" font-family="sans-serif" font-size="11" lengthAdjust="spacingAndGlyphs" textLength="88" x="254" y="144.5898">target: Runnable</text><rect fill="none" height="6" style="stroke: #C82930; stroke-width: 1.0;" width="6" x="242" y="151.8877"/><text fill="#000000" font-family="sans-serif" font-size="11" lengthAdjust="spacingAndGlyphs" textLength="60" x="254" y="157.5449">priority: int</text><rect fill="none" height="6" style="stroke: #C82930; stroke-width: 1.0;" width="6" x="242" y="164.8428"/><text fill="#000000" font-family="sans-serif" font-size="11" lengthAdjust="spacingAndGlyphs" textLength="111" x="254" y="170.5">group: ThreadGroup</text><rect fill="none" height="6" style="stroke: #C82930; stroke-width: 1.0;" width="6" x="242" y="177.7979"/><text fill="#000000" font-family="sans-serif" font-size="11" lengthAdjust="spacingAndGlyphs" textLength="44" x="254" y="183.4551">tid: long</text><rect fill="none" height="6" style="stroke: #C82930; stroke-width: 1.0;" width="6" x="242" y="190.7529"/><text fill="#000000" font-family="sans-serif" font-size="11" lengthAdjust="spacingAndGlyphs" textLength="79" x="254" y="196.4102">stackSize: long</text><rect fill="none" height="6" style="stroke: #C82930; stroke-width: 1.0;" width="6" x="242" y="203.708"/><text fill="#000000" font-family="sans-serif" font-size="11" lengthAdjust="spacingAndGlyphs" textLength="88" x="254" y="209.3652">threadStatus: int</text><line style="stroke: #A80036; stroke-width: 1.5;" x1="235" x2="370" y1="215.6855" y2="215.6855"/><rect fill="#F24D5C" height="6" style="stroke: #C82930; stroke-width: 1.0;" width="6" x="242" y="224.6631"/><text fill="#000000" font-family="sans-serif" font-size="11" lengthAdjust="spacingAndGlyphs" text-decoration="underline" textLength="89" x="254" y="230.3203">registerNatives()</text><line style="stroke: #000000; stroke-width: 1.0;" x1="254" x2="343" y1="232.3203" y2="232.3203"/><ellipse cx="245" cy="240.6182" fill="#84BE84" rx="3" ry="3" style="stroke: #038048; stroke-width: 1.0;"/><text fill="#000000" font-family="sans-serif" font-size="11" lengthAdjust="spacingAndGlyphs" textLength="27" x="254" y="243.2754">run()</text><ellipse cx="245" cy="253.5732" fill="#84BE84" rx="3" ry="3" style="stroke: #038048; stroke-width: 1.0;"/><text fill="#000000" font-family="sans-serif" font-size="11" lengthAdjust="spacingAndGlyphs" textLength="33" x="254" y="256.2305">start()</text><ellipse cx="245" cy="266.5283" fill="#84BE84" rx="3" ry="3" style="stroke: #038048; stroke-width: 1.0;"/><text fill="#000000" font-family="sans-serif" font-size="11" lengthAdjust="spacingAndGlyphs" textLength="28" x="254" y="269.1855">join()</text><ellipse cx="245" cy="279.4834" fill="#84BE84" rx="3" ry="3" style="stroke: #038048; stroke-width: 1.0;"/><text fill="#000000" font-family="sans-serif" font-size="11" lengthAdjust="spacingAndGlyphs" textLength="28" x="254" y="282.1406">exit()</text><ellipse cx="245" cy="292.4385" fill="#84BE84" rx="3" ry="3" style="stroke: #038048; stroke-width: 1.0;"/><text fill="#000000" font-family="sans-serif" font-size="11" lengthAdjust="spacingAndGlyphs" textLength="68" x="254" y="295.0957">setDeamon()</text><ellipse cx="245" cy="305.3936" fill="#84BE84" rx="3" ry="3" style="stroke: #038048; stroke-width: 1.0;"/><text fill="#000000" font-family="sans-serif" font-size="11" lengthAdjust="spacingAndGlyphs" textLength="35" x="254" y="308.0508">getId()</text><ellipse cx="245" cy="318.3486" fill="#84BE84" rx="3" ry="3" style="stroke: #038048; stroke-width: 1.0;"/><text fill="#000000" font-family="sans-serif" font-size="11" lengthAdjust="spacingAndGlyphs" textLength="83" x="254" y="321.0059">getState(): State</text><!--class Thread.State--><rect fill="#FEFECE" filter="url(#fpiilnl)" height="125.7305" style="stroke: #A80036; stroke-width: 1.5;" width="106" x="37" y="8"/><ellipse cx="52" cy="24" fill="#EB937F" rx="11" ry="11" style="stroke: #A80036; stroke-width: 1.0;"/><path d="M56.1143,30 L48.3945,30 L48.3945,17.6069 L56.1143,17.6069 L56.1143,19.7651 L50.8433,19.7651 L50.8433,22.438 L55.6162,22.438 L55.6162,24.5962 L50.8433,24.5962 L50.8433,27.8418 L56.1143,27.8418 Z "/><text fill="#000000" font-family="sans-serif" font-size="12" lengthAdjust="spacingAndGlyphs" textLength="74" x="66" y="28.5352">Thread.State</text><line style="stroke: #A80036; stroke-width: 1.5;" x1="38" x2="142" y1="40" y2="40"/><text fill="#000000" font-family="sans-serif" font-size="11" lengthAdjust="spacingAndGlyphs" textLength="23" x="43" y="54.6348">NEW</text><text fill="#000000" font-family="sans-serif" font-size="11" lengthAdjust="spacingAndGlyphs" textLength="57" x="43" y="67.5898">RUNNABLE</text><text fill="#000000" font-family="sans-serif" font-size="11" lengthAdjust="spacingAndGlyphs" textLength="50" x="43" y="80.5449">BLOCKED</text><text fill="#000000" font-family="sans-serif" font-size="11" lengthAdjust="spacingAndGlyphs" textLength="46" x="43" y="93.5">WAITING</text><text fill="#000000" font-family="sans-serif" font-size="11" lengthAdjust="spacingAndGlyphs" textLength="85" x="43" y="106.4551">TIMED_WAITING</text><text fill="#000000" font-family="sans-serif" font-size="11" lengthAdjust="spacingAndGlyphs" textLength="69" x="43" y="119.4102">TERMINATED</text><line style="stroke: #A80036; stroke-width: 1.5;" x1="38" x2="142" y1="125.7305" y2="125.7305"/><path d="M384.6146,206 C400.6098,206 416.7739,206 430.8755,206 " fill="none" style="stroke: #A80036; stroke-width: 1.0;"/><polygon fill="#A80036" points="371.2674,206,377.2674,210,383.2674,206,377.2674,202,371.2674,206" style="stroke: #A80036; stroke-width: 1.0;"/><path d="M179.391,206 C197.5431,206 216.369,206 233.6759,206 " fill="none" style="stroke: #A80036; stroke-width: 1.0;"/><polygon fill="#A80036" points="174.2908,206,183.2908,210,179.2908,206,183.2908,202,174.2908,206" style="stroke: #A80036; stroke-width: 1.0;"/></g></svg>